<?xml version="1.0" standalone="no"?>
<!DOCTYPE svg PUBLIC "-//W3C//DTD SVG 20010904//EN"
 "http://www.w3.org/TR/2001/REC-SVG-20010904/DTD/svg10.dtd">
<svg version="1.0" xmlns="http://www.w3.org/2000/svg"
 width="231.000000pt" height="218.000000pt" viewBox="0 0 231.000000 218.000000"
 preserveAspectRatio="xMidYMid meet">

<g transform="translate(0.000000,218.000000) scale(0.100000,-0.100000)"
fill="#000000" stroke="none">
<path d="M630 2151 c-6 -12 -10 -121 -10 -285 l0 -266 -299 0 c-240 0 -301 -3
-310 -14 -8 -9 -10 -205 -9 -717 l3 -704 83 -3 c82 -3 83 -2 80 20 -3 21 -9
23 -61 26 l-57 3 2 667 3 667 282 3 283 2 2 -342 c3 -326 4 -343 22 -346 10
-2 22 2 27 10 5 7 9 291 9 631 l0 617 475 0 475 0 0 -618 c0 -628 1 -649 36
-635 12 4 14 65 14 344 l0 339 288 -2 287 -3 3 -667 2 -667 -82 -3 c-78 -3
-83 -4 -86 -26 -3 -23 -3 -23 105 -20 l108 3 3 704 c1 512 -1 708 -9 717 -9
11 -71 14 -315 14 l-304 0 0 273 c0 199 -3 276 -12 285 -9 9 -138 12 -520 12
-491 0 -508 -1 -518 -19z"/>
<path d="M792 2012 c-9 -7 -12 -41 -10 -138 l3 -129 370 0 370 0 3 129 c2 97
-1 131 -10 138 -7 4 -170 8 -363 8 -192 0 -356 -4 -363 -8z"/>
<path d="M800 1475 l0 -85 80 0 80 0 0 85 0 85 -80 0 -80 0 0 -85z"/>
<path d="M1070 1475 l0 -86 83 3 82 3 3 83 3 82 -86 0 -85 0 0 -85z"/>
<path d="M1342 1478 l3 -83 83 -3 82 -3 0 86 0 85 -85 0 -86 0 3 -82z"/>
<path d="M180 1225 l0 -45 153 0 152 0 0 45 0 45 -152 0 -153 0 0 -45z"/>
<path d="M1820 1225 l0 -45 155 0 155 0 0 45 0 45 -155 0 -155 0 0 -45z"/>
<path d="M800 1168 l0 -83 80 0 80 0 0 83 0 82 -80 0 -80 0 0 -82z"/>
<path d="M1070 1171 l0 -79 81 -4 c44 -2 83 -1 85 1 2 2 4 40 4 83 l0 78 -85
0 -85 0 0 -79z"/>
<path d="M1342 1169 l3 -81 83 -1 82 -2 0 83 0 82 -85 0 -86 0 3 -81z"/>
<path d="M180 1035 l0 -45 153 0 152 0 -3 45 -4 45 -149 0 -149 0 0 -45z"/>
<path d="M1820 1035 l0 -45 155 0 155 0 0 45 0 45 -155 0 -155 0 0 -45z"/>
<path d="M1043 945 c-65 -33 -93 -84 -93 -169 0 -34 -6 -66 -15 -80 -14 -21
-13 -27 17 -86 46 -90 113 -159 160 -167 79 -12 127 22 194 136 43 74 54 114
34 126 -5 3 -10 33 -10 65 0 123 -58 187 -177 197 -49 4 -66 0 -110 -22z m45
-124 c42 -30 100 -51 159 -58 33 -3 52 -10 50 -17 -19 -49 -18 -56 2 -56 31 0
26 -25 -19 -101 -53 -89 -89 -119 -144 -119 -56 0 -75 15 -135 109 -56 88 -62
111 -30 111 20 0 21 4 15 48 -5 41 -3 53 15 75 24 32 51 34 87 8z"/>
<path d="M180 840 l0 -51 152 3 151 3 0 45 0 45 -151 3 -152 3 0 -51z"/>
<path d="M1827 883 c-4 -3 -7 -26 -7 -50 l0 -43 155 0 155 0 0 50 0 50 -148 0
c-82 0 -152 -3 -155 -7z"/>
<path d="M1565 716 c-93 -40 -152 -205 -114 -315 9 -26 16 -31 43 -31 l33 0
-10 48 c-14 66 -2 131 35 188 28 45 32 47 42 29 21 -37 166 -165 166 -146 0 5
-4 13 -10 16 -5 3 -10 11 -10 17 0 21 29 -13 40 -47 8 -23 8 -45 1 -69 -9 -34
-8 -36 15 -36 34 0 47 39 42 130 -6 103 -48 178 -120 216 -34 17 -113 18 -153
0z"/>
<path d="M534 669 c-53 -15 -75 -49 -85 -134 -9 -70 -8 -79 12 -113 75 -126
147 -132 220 -19 39 60 48 90 29 102 -5 3 -10 28 -10 54 0 60 -26 96 -78 111
-42 11 -46 11 -88 -1z m40 -104 c27 -14 63 -25 79 -25 26 0 29 -3 25 -25 -4
-17 -1 -25 8 -25 20 0 17 -19 -7 -60 -69 -116 -127 -120 -195 -15 -38 60 -42
75 -18 75 12 0 14 7 9 29 -8 35 9 71 33 71 9 0 39 -11 66 -25z"/>
<path d="M977 379 c-10 -6 -53 -21 -97 -33 -96 -28 -122 -44 -143 -88 -17 -37
-33 -184 -23 -222 l6 -26 415 0 c320 0 416 3 422 13 4 6 6 40 4 75 -1 38 2 69
10 78 8 10 9 25 1 54 -6 24 -6 42 -1 46 17 10 -3 25 -31 22 -15 -1 -35 3 -43
11 -9 7 -58 25 -109 40 -51 16 -100 31 -109 35 -13 6 -21 -10 -44 -89 -16 -52
-31 -95 -35 -95 -4 0 -13 24 -20 53 -10 42 -10 59 -1 76 16 29 -1 51 -39 51
-38 0 -55 -22 -39 -51 9 -17 9 -34 -1 -76 -7 -29 -16 -53 -20 -53 -4 0 -13 19
-20 43 -21 72 -51 147 -58 147 -4 0 -15 -5 -25 -11z"/>
<path d="M1783 278 c9 -13 24 -35 32 -50 15 -28 15 -28 -14 -28 -22 0 -47 -15
-93 -55 -35 -30 -69 -53 -75 -50 -8 3 -13 -5 -13 -20 l0 -25 189 0 188 0 -8
49 c-15 95 -53 135 -171 182 l-51 20 16 -23z"/>
<path d="M445 275 c-22 -7 -59 -18 -83 -24 -58 -16 -75 -46 -76 -129 l-1 -67
181 -3 181 -2 7 31 c3 17 6 50 6 73 0 22 5 58 11 80 7 26 7 42 0 49 -6 6 -15
-9 -27 -49 -23 -81 -26 -84 -39 -38 -7 21 -8 43 -3 49 17 19 8 35 -22 35 -29
0 -31 -2 -26 -32 3 -18 0 -46 -7 -62 l-13 -29 -19 62 c-10 34 -21 63 -24 65
-3 2 -24 -2 -46 -9z"/>
</g>
</svg>
